<svg xmlns="http://www.w3.org/2000/svg" viewBox="0 0 152.5 25"><path fill="#fff" d="M2.612 3.996h18.013v17.121H2.612z"/><path d="M22.2 0H2.8C1.3 0 0 1.3 0 2.8v19.4C0 23.7 1.3 25 2.8 25h19.4c1.5 0 2.8-1.3 2.8-2.8V2.8C25 1.3 23.7 0 22.2 0zm-2.7 15.8c0 .2-.2.3-.4.4-.9.4-1.9.8-2.9.8-1.5 0-2.1-.9-3.9-.9-1.3-.1-2.6.4-3.7.9-.1 0-.1 0-.2.1V20c-.1.4-.6.8-1 .8-.6 0-1.1-.5-1.1-1.1V7.6c-.5-.3-.8-.8-.8-1.4 0-1 .8-1.8 1.8-1.8s1.8.8 1.8 1.8c0 .6-.3 1.1-.7 1.4v1c.1 0 .2-.1.3-.1 1-.4 2.2-.8 3.3-.8 1.2 0 2.2.3 3.3.8.2.1.4.1.7.1 1.2 0 2.6-.9 2.9-.9.3.1.6.2.6.5v7.6z" fill="#238ae6"/><path d="M37.7 8.8h-4.9v2.5h4.8c.6 0 1.1.5 1.1 1.1s-.5 1.1-1.1 1.1h-4.8v3.8c0 .7-.6 1.3-1.3 1.3s-1.3-.6-1.3-1.3V8c0-.8.6-1.4 1.4-1.4h6c.6 0 1.1.5 1.1 1.1s-.5 1.1-1 1.1zm6.8.8c-2.9 0-4.6 2-4.6 4.5s1.7 4.6 4.6 4.6 4.6-2.1 4.6-4.6c0-2.4-1.7-4.5-4.6-4.5zm0 7c-1.4 0-2.2-1.1-2.2-2.5 0-1.3.8-2.5 2.2-2.5 1.5 0 2.3 1.2 2.2 2.5 0 1.3-.8 2.5-2.2 2.5zm13.5 2c-.6 0-1.1-.5-1.1-1.1v-4.2c0-1.2-.6-1.6-1.6-1.6-.9 0-1.6.5-2 1v4.8c0 .6-.5 1.1-1.1 1.1s-1.1-.5-1.1-1.1v-6.6c0-.6.5-1.1 1.2-1.1.6 0 1.1.5 1.1 1.1v.1c.6-.7 1.6-1.3 3-1.3 1.9 0 2.8 1.1 2.8 2.8v5.1c-.1.5-.6 1-1.2 1zm6.5.1c-1.6 0-2.5-.8-2.5-2.4v-4.5h-.6c-.5 0-1-.4-1-1 0-.5.4-1 1-1h.6V8.5c0-.6.5-1.1 1.2-1.1.6 0 1.1.5 1.1 1.1v1.3h.9c.5 0 1 .4 1 1 0 .5-.4 1-1 1h-.9v3.9c0 .7.4 1 .8 1h.2c.6 0 1 .4 1 1 0 .5-.4 1-1.8 1zm18.7-2l-3.5-9c-.4-.8-1.3-1.4-2.2-1.3-.9 0-1.7.5-2 1.3l-3.5 9c-.1.2-.1.3-.1.5 0 .7.5 1.4 1.3 1.4.6 0 1.1-.3 1.3-.8l.5-1.3h5.1l.5 1.3c.2.5.7.8 1.2.8.8 0 1.4-.7 1.5-1.4 0-.2 0-.3-.1-.5zm-7.6-2.4l1.9-5.2 1.8 5.2h-3.7zM97 11.1l-1.9 6.4c-.2.6-.8 1.1-1.5 1.1s-1.3-.4-1.5-1.1l-1.5-4.9-1.6 4.9c-.2.6-.8 1.1-1.5 1.1s-1.3-.5-1.5-1.1l-2-6.4c0-.1-.1-.2-.1-.3 0-.6.5-1.1 1.1-1.1.5 0 1 .3 1.1.8l1.4 5.1 1.6-5c.2-.5.7-.9 1.3-.9.6 0 1.1.4 1.3.9l1.6 5 1.4-5.1c.1-.5.6-.8 1.1-.8.7 0 1.1.5 1.1 1.1.2.1.1.2.1.3zm10.1 2.7c0-.4-.2-.9-.3-1.3-.7-1.8-2.1-2.9-4.1-2.9-2.7 0-4.5 2-4.5 4.5 0 2.8 2 4.6 4.6 4.6 1.2 0 3.4-.4 3.4-1.4 0-.5-.5-.9-1-.9-.1 0-.3 0-.4.1-.6.3-1.2.4-1.7.4-1.5 0-2.4-.9-2.5-2h5.3c.6 0 1-.5 1.2-1.1zm-6.6-.5c.1-.8.7-1.9 2.1-1.9 1.5 0 2.1 1.1 2.2 1.9h-4.3zm11.4 5.4c-1.1 0-2.9-.4-3.5-1.1-.1-.1-.2-.3-.2-.5 0-.5.5-1 1-1 .2 0 .3 0 .5.1.7.4 1.6.7 2.3.7 1 0 1.5-.4 1.5-.9 0-1.4-5.2-.3-5.2-3.7 0-1.5 1.3-2.7 3.6-2.7 1.1 0 2.7.4 3.2 1.1.1.1.1.3.1.4 0 .5-.4.9-.9.9-.1 0-.3 0-.4-.1-.6-.3-1.3-.5-2-.5-.8 0-1.4.4-1.4.9 0 1.3 5.1.2 5.1 3.7 0 1.5-1.3 2.7-3.7 2.7zm9.6-9.1c-2.9 0-4.6 2-4.6 4.5s1.7 4.6 4.6 4.6 4.6-2.1 4.6-4.6c0-2.4-1.7-4.5-4.6-4.5zm0 7c-1.4 0-2.2-1.1-2.2-2.5 0-1.3.8-2.5 2.2-2.5s2.2 1.2 2.2 2.5-.8 2.5-2.2 2.5zm18.3 2c-.6 0-1.1-.5-1.1-1.1V13c0-.8-.4-1.4-1.3-1.4-.8 0-1.5.5-1.8 1v4.8c0 .6-.5 1.1-1.2 1.1-.6 0-1.1-.5-1.1-1.1V13c0-.8-.4-1.4-1.3-1.4-.8 0-1.5.5-1.8 1v4.8c0 .6-.5 1.1-1.1 1.1s-1.1-.5-1.1-1.1v-6.6c0-.6.5-1.1 1.2-1.1.6 0 1.1.5 1.1 1.1v.2c.4-.5 1.5-1.3 2.8-1.3s2.1.6 2.4 1.6c.5-.8 1.7-1.6 3-1.6 1.6 0 2.5.8 2.5 2.6v5.2c0 .6-.5 1.1-1.2 1.1zm12-4.8c0-.4-.2-.9-.3-1.3-.7-1.8-2.1-2.9-4.1-2.9-2.7 0-4.5 2-4.5 4.5 0 2.8 2 4.6 4.6 4.6 1.2 0 3.4-.4 3.4-1.4 0-.5-.5-.9-1-.9-.1 0-.3 0-.4.1-.6.3-1.2.4-1.7.4-1.5 0-2.4-.9-2.5-2h5.3c.6 0 1.1-.5 1.2-1.1zm-6.6-.5c.1-.8.7-1.9 2.1-1.9 1.6 0 2.1 1.1 2.2 1.9h-4.3zm19.9-4.4h-5v2.5h4.8c.6 0 1.1.5 1.1 1.1s-.5 1.1-1.1 1.1h-4.8v3.8c0 .7-.6 1.3-1.3 1.3s-1.3-.6-1.3-1.3V8.1c0-.8.6-1.4 1.4-1.4h6.1c.6 0 1.1.5 1.1 1.1.1.6-.4 1.1-1 1.1zm6.8 3.1c-.7.1-1.4.4-1.8.9v4.7c0 .6-.5 1.1-1.1 1.1s-1.1-.5-1.1-1.1V11c0-.6.5-1.1 1.2-1.1.6 0 1.1.5 1.1 1.1v.2c.4-.6 1-1.3 1.9-1.3.7 0 1 .4 1 .9-.1.7-.6 1.1-1.2 1.2zm9.6 3c.6 0 1.1-.4 1.2-1.2 0-.4-.2-.9-.3-1.3-.6-1.8-2.1-2.9-4.1-2.9-2.6 0-4.5 2.1-4.5 4.6 0 2.8 2 4.6 4.6 4.6 1.2 0 3.4-.4 3.4-1.4 0-.5-.5-.9-1-.9-.2 0-.4 0-.5.1-.5.3-1.2.4-1.7.4-1.5 0-2.4-.9-2.5-2h5.4zm-5.3-1.5c.1-.8.7-1.9 2.1-1.9 1.5 0 2 1.1 2.2 1.9h-4.3zm15.3 1.5c.6 0 1-.4 1.2-1.2 0-.4-.2-.9-.3-1.3-.6-1.8-2.1-2.9-4.1-2.9-2.6 0-4.5 2.1-4.5 4.6 0 2.8 2 4.6 4.6 4.6 1.2 0 3.4-.4 3.4-1.4 0-.5-.5-.9-1-.9-.2 0-.4 0-.5.1-.5.3-1.2.4-1.7.4-1.5 0-2.4-.9-2.5-2h5.4zm-5.4-1.5c.1-.8.7-1.9 2.1-1.9 1.5 0 2.1 1.1 2.2 1.9h-4.3z" fill="#fff"/></svg>