<svg xmlns="http://www.w3.org/2000/svg" width="380.54" height="211.16"><g stroke-miterlimit="10" fill="#fff" stroke="#fff"><path d="M67.53 121.12c-.17.26-.5 1.08-.95 2.45-.46 1.38-1.02 3.1-1.68 5.2-.66 2.07-1.38 4.4-2.14 6.97l-2.37 7.88c-.9 2.68-1.6 5.3-2.4 7.88l-2 6.98-1.5 5.22-.7 2.5c-.3.83-.6 1.75-1.1 2.77-.5 1-1.1 1.97-1.7 2.88-.7.9-1.4 1.67-2.2 2.27-.8.6-1.6.9-2.5.9-1.4 0-2.4-.48-3.1-1.4-.7-.95-1-2.66-1-5.16v-2.26c0-.83.4-2.4 1-4.68.6-2.3 1.3-4.88 2.2-7.76.8-2.9 1.8-5.88 2.7-8.97l2.7-8.4c-2.4 2.6-4.9 5.2-7.6 7.7-2.7 2.6-5.5 4.9-8.3 6.9-2.9 2-5.8 3.7-8.7 5-2.9 1.3-5.7 1.9-8.4 1.9-3.1 0-5.7-.7-7.9-2.1-2.2-1.4-4.1-3.1-5.5-5.3-1.4-2.2-2.5-4.7-3.2-7.4C.8 140.5.4 137.7.4 135v-1c0-.3.04-.63.1-.94.24-5 .95-10.1 2.1-15.34 1.2-5.28 2.7-10.5 4.6-15.7 1.9-5.2 4.1-10.3 6.6-15.26C16.4 82 19.1 77.3 22 72.9c2.9-4.4 6.02-8.5 9.3-12.2 3.3-3.72 6.67-6.92 10.14-9.6 3.46-2.7 6.96-4.8 10.5-6.3 3.5-1.5 7-2.3 10.46-2.3 4 0 7.86 1.1 11.6 3.27C77.7 48 81.2 51.5 84.48 56.4c.74 1.1 1.2 2.2 1.4 3.32.2 1.1.3 2.17.3 3.15 0 2.34-.55 4.2-1.67 5.54-1.1 1.4-2.4 2-4 2-1.4 0-2.7-.7-3.9-2.2-1.2-1.5-2.6-3.6-4-6.3-1.4-2.5-2.9-4.3-4.6-5.4-1.7-1.1-3.5-1.6-5.5-1.6-3.1 0-6.3 1.3-9.8 3.9-3.5 2.6-6.9 5.9-10.3 10.1-3.4 4.2-6.7 9-9.8 14.4-3.1 5.4-5.9 10.9-8.3 16.6-2.4 5.7-4.3 11.2-5.7 16.7-1.4 5.5-2.1 10.4-2.1 14.8 0 1.5.1 3 .3 4.5.2 1.6.6 2.9 1.1 4.2.5 1.3 1.3 2.3 2.3 3.1 1 .8 2.2 1.2 3.6 1.2 1.6 0 3.5-.5 5.5-1.6 2.1-1.1 4.2-2.5 6.4-4.3 2.2-1.8 4.5-3.8 6.7-6s4.4-4.5 6.3-6.8c1.9-2.3 3.7-4.5 5.1-6.6 1.5-2.1 2.6-3.9 3.4-5.5L63 95c.74-1.97 1.7-3.38 2.93-4.2 1.2-.84 2.43-1.26 3.7-1.26.6 0 1.23.1 1.85.3.6.2 1.18.52 1.67.96.5.4.87 1 1.16 1.7.3.7.5 1.5.5 2.5 0 2.5-.2 4.86-.6 7.04-.4 2.2-1 4.3-1.7 6.4-.6 2.05-1.4 4.14-2.2 6.25-.8 2.1-1.6 4.3-2.4 6.6zm83.03 15.28c-1.93 2.6-4.18 5.14-6.74 7.6a67.566 67.566 0 01-7.94 6.6c-2.72 1.92-5.4 3.47-8.03 4.64-2.64 1.17-5 1.75-7.1 1.75-2.1 0-3.83-.7-5.15-2.1-1.32-1.4-1.98-3.8-1.98-7.2 0-2.4.36-5.2 1.06-8.4-1.14 2-2.57 4.1-4.28 6.1-1.7 2.1-3.67 4-5.86 5.7-2.2 1.7-4.66 3.1-7.38 4.1-2.72 1-5.68 1.6-8.9 1.6-1.43 0-2.83-.2-4.17-.6-1.4-.4-2.6-1-3.6-1.9-1-.9-1.8-2.1-2.5-3.6-.6-1.5-.9-3.4-.9-5.6l.2-2.4c.2-1.5.7-4 1.7-7.3s2.4-7.6 4.4-12.9c2-5.3 4.7-11.6 8.3-19.1.9-2 1.9-3.4 3.2-4.3 1.2-.9 2.5-1.3 3.9-1.3.6 0 1.2.1 1.9.3.6.1 1.2.4 1.8.8.6.4 1 .9 1.4 1.5.3.5.5 1.2.5 2 0 .5-.1 1-.2 1.4-.3.9-.7 2-1.4 3.4l-2.6 4.94c-1 1.8-2 3.8-3.1 5.92-1.1 2.13-2.1 4.4-3 6.62-.9 2.3-1.7 4.65-2.4 7-.7 2.4-1.1 4.7-1.2 6.9 0 1 .2 1.8.6 2.6.4.8 1.2 1.2 2.2 1.2 2.8 0 5.6-.9 8.2-2.8 2.6-1.87 5-4.2 7.2-6.98 2.2-2.8 4.2-5.8 6-9 1.8-3.2 3.2-6.1 4.4-8.74.8-1.77 1.6-3.67 2.2-5.7.6-2 1.3-3.9 2.1-5.6.7-1.7 1.6-3.16 2.6-4.3.9-1.14 2.1-1.7 3.6-1.7s2.8.6 3.7 1.8c.9 1.2 1.4 2.6 1.4 4.3 0 .9-.3 2.2-.9 3.8-.6 1.6-1.3 3.5-2.2 5.6l-2.9 6.77c-1.1 2.4-2 4.8-2.9 7.3-.9 2.45-1.7 4.9-2.3 7.24-.6 2.4-.9 4.6-.9 6.6 0 1.9 1 2.8 2.9 2.8 1.4 0 3.1-.4 5.1-1.4 2-.9 4.1-2.2 6.3-3.9 2.2-1.7 4.4-3.7 6.6-6 2.2-2.3 4.2-4.74 5.9-7.4l.7 10.6z"/><path d="M152.6 132.5c-.48 1.2-.95 2.6-1.4 4.18-.47 1.58-.7 3-.7 4.25 0 .78.13 1.4.4 1.87.26.47.76.7 1.5.7.93 0 2.08-.32 3.47-.97 1.38-.65 2.87-1.5 4.47-2.58 1.6-1.06 3.28-2.28 5-3.66 1.74-1.4 3.47-2.9 5.18-4.3 1.7-1.5 3.34-3 4.9-4.5 1.56-1.5 2.96-2.9 4.2-4.1.34-.4.75-.6 1.24-.8.48-.2.9-.3 1.25-.3.9 0 1.6.3 2.2 1.1.6.7.9 1.7.9 2.9 0 1.1-.3 2.3-.9 3.6-.6 1.3-1.7 2.6-3.2 3.9-2.8 3-5.6 5.9-8.5 8.7-2.8 2.7-5.7 5.2-8.5 7.3-2.8 2.1-5.6 3.7-8.4 5-2.8 1.2-5.5 1.8-8.1 1.8-1.8 0-3.3-.3-4.5-.9-1.2-.6-2.1-1.4-2.9-2.4-.7-1-1.2-2.2-1.5-3.5-.3-1.4-.4-2.8-.4-4.3 0-2.6.3-5.2 1-7.9s1.4-5.2 2.3-7.4c1.6-4.1 3.1-8.1 4.7-12.1l4.4-11L170.6 57c.75-2 1.8-3.42 3.15-4.3 1.36-.8 2.7-1.2 4.07-1.2 1.4 0 2.6.4 3.74 1.3 1.1.86 1.7 2.3 1.7 4.27 0 .93-.2 1.92-.55 2.96-.4 1-.8 2.14-1.4 3.33-1.1 2.42-2.4 5.4-3.9 8.94l-5 11.6c-1.7 4.15-3.5 8.5-5.3 13l-5.4 13.2c-1.8 4.28-3.4 8.3-4.9 12.14l-3.9 9.93z"/><path d="M245.9 118.4c.63-.43 1.2-.77 1.73-1.03.52-.26 1.03-.4 1.5-.4.97 0 1.7.44 2.18 1.3.5.86.8 1.9.8 3.16 0 1.35-.3 2.73-.9 4.13-.6 1.4-1.4 2.58-2.6 3.5-4.7 4.17-8.9 7.97-12.5 11.4-3.7 3.43-7.1 6.38-10.4 8.85-3.3 2.5-6.5 4.4-9.6 5.8-3.1 1.4-6.4 2.1-10 2.1-3.3 0-5.9-.7-7.7-2.2-1.8-1.4-2.7-3.4-2.7-6v-.6c0-.1.1-.4.1-.6.2-1.5.9-3.3 2.1-5.4 1.2-2 2.6-4.1 4.3-6.3 1.7-2.2 3.5-4.4 5.4-6.6 1.9-2.2 3.6-4.3 5.3-6.3 1.6-2 2.9-3.8 4-5.5 1.1-1.6 1.6-3 1.6-4 0-.6-.2-1.1-.62-1.5-.47-.3-1.2-.5-2.2-.5-1.8 0-3.6.5-5.46 1.4-1.9.9-3.76 2.2-5.6 3.7-1.8 1.6-3.6 3.3-5.32 5.3-1.72 2-3.3 4.1-4.9 6.2-1.5 2.2-2.9 4.3-4.2 6.5-1.2 2.2-2.3 4.2-3.2 6l-1.1 2.4-1.5 3.6-1.8 4-1.7 3.9-1.4 3.3c-.4 1-.7 1.6-.9 2-.2.5-.5 1.4-1 2.7l-1.8 4.58-2.1 5.5-2 5.4-1.7 4.58c-.5 1.3-.8 2.18-.9 2.65-.5 1.3-1 2.6-1.6 3.8-.6 1.2-1.25 2.23-2.02 3.14-.76.9-1.64 1.65-2.63 2.2-1 .5-2.1.8-3.3.8-1.6 0-2.9-.4-3.9-1.12-1-.7-1.6-2.2-1.6-4.3 0-1 .1-2.1.4-3.2.2-1.1.6-2.12 1-3.2.3-1.1.8-2.1 1.2-3.1.4-1 .8-2 1.1-2.96 2.3-5.2 4.75-10.4 7.2-15.66s4.8-10.4 7.1-15.5c2.26-5.1 4.35-10.1 6.3-15.1 1.9-4.9 3.5-9.66 4.8-14.2l1.4-3.96c.6-1.7 1.3-3.4 2.1-5s1.7-3.1 2.7-4.3c1-1.2 2.1-1.83 3.2-1.83 1.8 0 3.07.4 3.86 1.2.8.88 1.2 2 1.2 3.6 0 .3-.04.8-.13 1.5-.1.7-.2 1.4-.36 2.15l-.43 2.1c-.1.7-.3 1.2-.4 1.5 1.6-1.76 3.4-3.5 5.28-5.25 1.9-1.73 3.9-3.3 5.9-4.7 2-1.4 4.1-2.6 6.2-3.45 2.1-.9 4.2-1.35 6.3-1.35 1.5 0 2.9.2 4.36.6 1.4.42 2.7 1.03 3.8 1.84 1.17.8 2.08 1.8 2.78 3 .7 1.2 1.05 2.63 1.05 4.24 0 2.13-.56 4.4-1.6 6.8-1.1 2.44-2.4 4.9-4.06 7.3-1.6 2.46-3.37 4.84-5.26 7.15-1.9 2.3-3.6 4.4-5.3 6.3l-4.2 4.9c-1.1 1.3-1.7 2.2-1.72 2.7 0 .6.2 1.1.6 1.5.4.4 1.1.6 2 .6.78 0 1.88-.45 3.3-1.3 1.48-.9 3.5-2.3 6.1-4.36 2.6-2.1 5.96-4.8 9.97-8.3 4-3.46 9-7.8 14.87-13.07z"/></g><path d="M368.572 115.032l6.012-54s-5.694 4.716-41.945 4.716c-36.254 0-41.362-4.618-41.362-4.618l4.764 45.906c2.55-7.258 8.631-22.023 18.226-21.528 4.36.223 10.174 8.614 5.19 8.898-2.105.119-2.313-4.188-4.804-4.82-1.8-.456-4.31 1.009-5.932 2.596-3.233 3.165-10.189 15.649-9.27 21.874 1.175 7.934 10.954-2.758 12.606-5.932 1.169-2.236 1.958-8.862 4.509-8.168 2.545.694-.226 7.533-2.076 13.578-2.077 6.792-3.165 13.964-5.766 13.14-2.602-.83 1.63-9.586 1.483-11.123-2.447 2.254-6.962 7.979-12.734 5.131l3.055 29.465s7.958 6.288 31.93 6.288c23.965 0 32.226-6.187 32.226-6.187l3.39-30.447c-3.322 2.996-12.398 7.772-12.997 2.017-.493-4.76 10.428-11.662 7.623-11.893-6.03.356-9.035 7.08-12.072 14.118-1.11 2.58-4.915 13.596-7.415 12.24-2.492-1.358 3.239-10.41 4.843-15.779-1.854 1.353-8.652 6.632-10.402 1.691-2.817 2.388-8.838 3.684-8.156-2.598-1.495 2.657-4.865 6.362-8.898 4.823-5.298-2.023 3.075-18.909 5.16-18.058 2.077.852-.424 4.699-1.08 6.193-1.44 3.287-3.105 7.421-1.986 8.267 1.898 1.447 7.088-5.487 7.198-5.636.97-1.281 3.737-9.669 5.962-8.702 2.224.961-5.555 12.03-2.646 14.228.593.445 2.99-.273 4.45-1.854.948-1.02.622-3.283 3.766-10.796 3.156-7.513 5.962-16.868 8.127-16.156 2.156.712.377 5.517-.397 7.305-3.63 8.406-9.922 22.287-6.956 21.237 2.966-1.053 4.509-1.112 7.415-4.508 2.907-3.402 2.77-9.002 4.707-8.88 1.94.118 1.614 1.91 1.145 3.277 1.905-2.177 9.032-6.772 10.752-2.225 2.047 5.387-10.191 13.164-7.14 12.77 2.834-.375 7.35-3.163 9.552-5.826zm-24.825-62.708a290.73 290.73 0 00-10.601-.19c-23.313 0-42.207 2.658-42.207 5.932 0 3.275 18.894 5.932 42.201 5.932 23.307 0 42.2-2.657 42.2-5.932 0-2.372-9.915-4.419-24.238-5.368l2.922-11.547 20.901-21.993-.097-.083a.921.921 0 00.178-.148c.534-.608-.267-2.16-1.78-3.47-1.513-1.306-3.165-1.87-3.69-1.267a.627.627 0 00-.142.282l-22.118 23.425-3.541 14.427zm12.315 139.564c0 3.12-10.293 5.65-22.987 5.65-12.695 0-22.987-2.53-22.987-5.65l-1.97-29.109-5.57-9.248s11.129 4.538 30.046 4.538c18.924 0 30.224-4.627 30.224-4.627l-4.965 8.483-1.797 29.963zM349.085 59.68c.712-.095 1.81-.228 1.81-1.089 0-.504-.427-.8-.914-.949l-.362.564c.297.074.475.166.475.26-.005.321-2.284.475-4.164.5-1.88.023-4.343-.2-4.34-.523 0-.068.089-.133.252-.187l-.364-.572c-.386.172-.689.415-.689.848 0 .226.098.555.282.72.682.624 2.388.644 4.793.633 2.403-.01 3.224-.193 3.224-.193z" fill="#eb4a4b" fill-rule="evenodd"/></svg>