<svg xmlns="http://www.w3.org/2000/svg" width="371.147" height="94.333"><path d="M142.95 83.982a29.993 29.993 0 01-.191 2.55l3.32-6.018-.366-1.963 3.334-.51 1.212 8.338 1.533-5.227c.121-.51.184-.892.199-1.275.012-.383-.024-.79-.158-1.352l3.491-.662c.127.713.208 1.326.187 1.962-.031.842-.242 1.76-.826 3.136l-2.81 7.548h-4.156l-.875-5.635-3.255 5.635h-4.029c.159-5.252-.032-8.541-.396-11.984l3.46-.535c.264 1.913.401 3.825.325 5.992m21.641-2.881c-1.61.867-2.207 1.198-3.666 2.09l-1.556 7.318h-3.593l2.537-12.111 3.18-.535-.136 1.682c1.224-.714 2.21-1.224 3.297-1.682l-.062 3.238m3.294-8.211l3.715-.51-.823 3.825-3.689.51zm-1.161 5.482l3.716-.51-2.685 12.647h-3.594l2.563-12.137m10.335 2.601l-1.312 6.196c-.03.127-.06.255-.063.332-.005.178.093.255.35.255.611 0 1.306-.255 1.954-.51l.625 2.498c-1.038.56-2.533 1.02-3.986 1.02-1.81 0-2.748-.867-2.696-2.345.005-.18.038-.358.069-.536l1.465-6.91h-1.834l.609-2.88h1.836l.613-2.984 3.714-.51-.734 3.494h2.958l-.815 2.88h-2.753m10.822.357c.015-.434-.357-.714-1.02-.714-1.301 0-1.709.74-1.922 1.76l-.183.867c.617-.154.899-.204 1.645-.434.98-.28 1.454-.74 1.48-1.479zm-6.542 1.198c.608-2.856 1.948-4.69 5.874-4.69 2.344 0 4.094 1.019 4.02 3.11-.084 2.422-1.372 3.544-4.462 4.461-1.522.46-1.547.46-2.627.74l-.184.867c-.092.46-.056.867.607.867 1.301 0 3.21-.638 4.918-1.376l.599 2.548c-1.537.944-3.935 1.71-6.127 1.71-2.574 0-3.632-1.122-3.558-3.239a8.31 8.31 0 01.206-1.505l.734-3.493m19.169-9.51l3.715-.51-3.79 18.001h-3.594l3.669-17.491m10.722 8.312c.015-.434-.357-.714-1.02-.714-1.3 0-1.71.74-1.923 1.76l-.182.867c.618-.154.898-.204 1.646-.434.978-.28 1.453-.74 1.478-1.479zm-6.542 1.198c.608-2.856 1.948-4.69 5.873-4.69 2.346 0 4.095 1.019 4.022 3.11-.084 2.422-1.372 3.544-4.464 4.461-1.52.46-1.546.46-2.626.74l-.184.867c-.092.46-.056.867.607.867 1.301 0 3.21-.638 4.917-1.376l.6 2.548c-1.538.944-3.934 1.71-6.126 1.71-2.576 0-3.634-1.122-3.559-3.239a8.3 8.3 0 01.205-1.505l.735-3.493m10.192 7.42l.781-2.652c.931.332 1.991.638 3.342.638 1.198 0 1.286-.357 1.409-.944.121-.56-.225-.866-1.601-1.606-2.551-1.377-2.622-2.295-2.224-4.155.577-2.678 1.393-3.392 4.834-3.392 1.172 0 2.667.256 3.676.586l-.682 2.704c-.91-.256-2.251-.46-3.119-.46-1.07 0-1.23.128-1.38.79-.121.587.001.715 1.177 1.352 2.802 1.53 3.218 2.065 2.792 4.028-.608 2.806-1.462 3.928-5.185 3.928-1.147 0-2.741-.333-3.82-.817m10.299 0l.781-2.652c.93.332 1.99.638 3.343.638 1.197 0 1.286-.357 1.409-.944.121-.56-.225-.866-1.601-1.606-2.552-1.377-2.622-2.295-2.224-4.155.576-2.678 1.392-3.392 4.834-3.392 1.171 0 2.667.256 3.675.586l-.681 2.704c-.91-.256-2.252-.46-3.119-.46-1.07 0-1.23.128-1.38.79-.121.587.001.715 1.176 1.352 2.803 1.53 3.219 2.065 2.792 4.028-.608 2.806-1.461 3.928-5.184 3.928-1.148 0-2.741-.333-3.821-.817m9.849 3.34l2.061-2.779h-1.352l.887-4.232h3.595l-.974 4.538-2.954 3.518-1.263-1.045m16.364-6.502c-.15.664.017.97.655.97 1.274 0 2.214-.663 2.924-1.275l1.161-5.533c-.405-.077-.888-.102-1.397-.102-1.862 0-2.279.994-2.55 2.193zm3.285 3.723l-.065-1.071c-.917.74-2.212 1.327-3.997 1.327-2.702 0-3.307-1.633-2.726-4.412l.703-3.34c.613-2.958 1.456-5.176 6.681-5.176.383 0 1.171.051 1.5.128l1.039-4.947 3.688-.51-3.788 18.001h-3.035m14.818-8.261c.032-.918-.511-1.402-1.684-1.402-1.352 0-2.167.688-2.412 1.912l-.643 3.085a3.62 3.62 0 00-.07.51c-.03.892.513 1.403 1.686 1.403 1.376 0 2.164-.689 2.41-1.913l.645-3.085c.03-.178.062-.357.068-.51zm-8.439 4.36c.01-.28.048-.587.11-.867l.61-2.881c.67-3.188 2.29-5.023 6.624-5.023 3.34 0 4.776 1.912 4.7 4.13-.01.28-.047.587-.108.893l-.61 2.881c-.64 2.983-2.14 5.024-6.651 5.024-3.162 0-4.752-1.888-4.675-4.157m33.988-4.538c.03-.153.061-.28.064-.383.008-.255-.115-.357-.472-.357-.663 0-2.241.663-3.279 1.198l-1.681 7.981h-3.568l1.773-8.44c.03-.152.062-.28.063-.382.01-.255-.113-.357-.47-.357-.663 0-2.267.663-3.254 1.173l-1.681 8.006h-3.595l2.54-12.111 3.179-.535-.074 1.376c1.97-.918 3.516-1.402 4.944-1.402 1.223 0 1.842.535 2.09 1.454 1.925-1.098 3.646-1.454 5.073-1.454 1.657 0 2.236.944 2.181 2.523a7.464 7.464 0 01-.177 1.43l-1.835 8.72h-3.594l1.773-8.44m13.476.178c.033-.918-.51-1.402-1.684-1.402-1.35 0-2.167.688-2.41 1.912l-.645 3.085a3.812 3.812 0 00-.068.51c-.032.892.511 1.403 1.684 1.403 1.378 0 2.164-.689 2.412-1.913l.643-3.085a3.76 3.76 0 00.068-.51zm-8.437 4.36c.01-.28.046-.587.108-.867l.61-2.881c.671-3.188 2.292-5.023 6.626-5.023 3.34 0 4.776 1.912 4.698 4.13-.01.28-.046.587-.108.893l-.609 2.881c-.64 2.983-2.139 5.024-6.65 5.024-3.162 0-4.754-1.888-4.675-4.157m21.581-5.507c-1.61.867-2.21 1.198-3.667 2.09l-1.556 7.318h-3.594l2.54-12.111 3.177-.535-.135 1.682c1.224-.714 2.211-1.224 3.296-1.682l-.061 3.238m7.359.229c.016-.434-.356-.714-1.02-.714-1.3 0-1.71.74-1.923 1.76l-.183.867c.618-.154.899-.204 1.647-.434.979-.28 1.453-.74 1.479-1.479zm-6.542 1.198c.608-2.856 1.948-4.69 5.874-4.69 2.345 0 4.093 1.019 4.021 3.11-.085 2.422-1.373 3.544-4.465 4.461-1.52.46-1.544.46-2.626.74l-.182.867c-.094.46-.056.867.606.867 1.3 0 3.21-.638 4.918-1.376l.598 2.548c-1.537.944-3.934 1.71-6.125 1.71-2.576 0-3.633-1.122-3.559-3.239a8.22 8.22 0 01.206-1.505l.734-3.493m11.364 3.749h3.595l-.887 4.232h-3.594l.886-4.232" fill="#fff"/><path d="M4.36 17.927c-6.076 8.729-5.325 20.086-.676 29.362.104.226.223.44.337.659.065.142.14.284.22.423.035.077.09.161.134.236.075.152.154.291.234.436.15.251.298.507.448.756.084.14.164.28.259.419.158.268.343.534.507.803.075.114.145.226.224.338.239.364.479.722.742 1.075 0 .01.01.02.02.025.04.06.084.117.124.172.224.306.448.605.682.9.08.11.169.22.25.326.213.26.422.518.63.775.08.091.16.189.245.284.278.336.572.669.87.998 0 .004.01.01.016.019.01.012.02.025.04.037.288.316.581.627.88.936.095.095.189.187.294.286.228.232.457.466.702.694.1.095.198.187.293.279.319.299.637.598.97.883.005.006.01.008.015.012.055.048.115.096.165.143.293.25.587.5.885.746.12.1.24.194.36.291.248.197.497.385.745.575.13.097.26.197.394.299.268.201.547.398.82.592.1.072.2.145.304.211.025.023.055.043.08.063.273.179.532.353.802.53.118.076.233.151.348.228.418.267.835.523 1.249.772.12.062.238.13.353.196.308.18.622.357.94.526.175.097.349.182.528.27.214.118.438.237.667.354.055.022.11.042.16.07.094.042.183.09.273.134.349.172.706.334 1.075.498.07.033.144.062.219.1.412.178.826.35 1.249.517.1.038.199.082.304.117a46.788 46.788 0 001.318.49c.438.15.871.29 1.314.428.105.03.21.067.319.095.453.137.89.296 1.353.383 29.377 5.355 37.912-17.655 37.912-17.655-7.17 9.334-19.896 11.8-31.95 9.058-.448-.102-.89-.244-1.343-.378a5.63 5.63 0 01-.33-.103c-.437-.131-.87-.274-1.292-.418a2.311 2.311 0 01-.185-.067c-.383-.131-.76-.276-1.14-.422-.104-.045-.213-.083-.318-.123-.418-.164-.83-.34-1.234-.517-.09-.032-.165-.07-.25-.105-.352-.162-.69-.32-1.034-.485-.105-.044-.2-.095-.304-.147-.269-.127-.537-.269-.8-.408-.185-.095-.365-.182-.539-.278-.323-.174-.646-.359-.97-.538-.1-.068-.21-.125-.324-.186a46.34 46.34 0 01-1.253-.77 7.98 7.98 0 01-.339-.226 31.075 31.075 0 01-.896-.592l-.288-.207c-.284-.2-.563-.4-.846-.607a12.8 12.8 0 00-.374-.283c-.254-.197-.507-.39-.761-.596-.11-.091-.223-.181-.334-.27a30.944 30.944 0 01-.95-.802c-.03-.032-.074-.06-.11-.087a81.003 81.003 0 01-.995-.908c-.1-.095-.183-.182-.283-.272-.239-.233-.478-.462-.712-.7-.1-.098-.19-.19-.284-.285a28.224 28.224 0 01-.88-.93.418.418 0 01-.046-.045 42.59 42.59 0 01-.89-1.016c-.08-.091-.155-.186-.234-.276-.214-.263-.428-.53-.647-.793-.07-.103-.15-.2-.23-.299a37.429 37.429 0 01-.74-.988c-6.69-9.125-9.103-21.718-3.753-32.052" fill="#88d6f6"/><path d="M23.222 10.568c-4.405 6.32-4.16 14.784-.732 21.472a26.267 26.267 0 001.94 3.24c.658.945 1.385 2.065 2.265 2.824.309.349.642.687.986 1.028l.259.256c.328.316.662.627 1.005.93.01.013.03.026.04.038a23.996 23.996 0 001.184.98c.095.068.18.143.274.21.398.31.806.609 1.219.902.015.006.025.016.045.023.179.13.368.25.562.373.085.055.174.12.26.172.302.197.601.38.91.563.045.022.09.046.134.069.259.157.532.31.807.45.094.058.188.103.283.155.19.094.378.194.562.29.025.014.06.028.09.04.388.192.781.37 1.17.546.094.037.174.07.263.107.32.136.642.271.96.393.145.048.28.104.414.152.293.104.592.206.886.303.144.048.273.087.403.13.418.132.841.301 1.284.37 22.674 3.76 27.919-13.706 27.919-13.706-4.723 6.804-13.866 10.043-23.62 7.51a20.628 20.628 0 01-1.284-.373c-.134-.034-.253-.077-.382-.122a20.54 20.54 0 01-.901-.308c-.135-.05-.274-.1-.408-.152-.324-.127-.647-.251-.961-.39-.094-.038-.184-.07-.259-.11a34.448 34.448 0 01-1.19-.548c-.198-.102-.392-.201-.591-.305a15.671 15.671 0 01-1.096-.6c-.058-.033-.119-.063-.179-.098-.303-.184-.617-.367-.905-.56-.1-.056-.184-.121-.279-.18-.2-.127-.393-.255-.598-.391a38.63 38.63 0 01-1.218-.894c-.095-.077-.185-.147-.274-.222-4.28-3.369-7.664-7.977-9.266-13.195-1.693-5.42-1.32-11.504 1.597-16.438" fill="#88d6f6"/><path d="M39.078 5.072c-2.598 3.811-2.847 8.547-1.056 12.753 1.901 4.469 5.788 7.974 10.317 9.634.184.072.368.132.557.197.085.024.164.052.255.079.263.082.527.182.8.234 12.526 2.419 15.92-6.427 16.831-7.729-2.98 4.285-7.982 5.313-14.118 3.823a14.749 14.749 0 01-1.479-.46 19.427 19.427 0 01-1.766-.73 18.549 18.549 0 01-3.09-1.889c-5.495-4.165-8.899-12.11-5.316-18.582" fill="#88d6f6"/><path d="M329.327 22.93l.492 2.075c.138.594-.239 1.075-.847 1.075m-39.162-6.714c-.123.575-.273 1.301-.371 1.782l-4.335 20.287 4.559-21.372.148-.697M159.95 32.942l-2.394 8.478 2.395-8.475z" fill="#fff"/><path d="M329.819 25.005l-1.25-5.283c-.985-3.823-3.777-5.629-10.052-5.629h-26.392c-.608 0-1.214.274-1.338.868l-10.012 47.486c-.131.6-.17 1.028-.102 1.324.071.307 1.246.25 1.847.25h9.143c.612 0 1.722.045 2.045-.086.339-.139.488-1.044.612-1.643l3.23-16.65 3.947-18.467c.128-.593.726-1.078 1.334-1.078l26.141-.017c.603 0 .985-.483.847-1.075" fill="#fff"/><path d="M367.007 5.755c-.612.007-11.594 0-11.594 0-.606 0-1.388.652-1.726 1.154l-20.351 29.94c-.347.503-.74.485-.875-.107l-1.504-6.562c-.128-.595-.734-1.08-1.352-1.08h-13.08c-.601 0-.965.503-.805 1.09l5.863 20.555c.169.589.184 1.55.033 2.138l-2.733 10.412c-.146.59.228.768.845.768h12.915c.606 0 1.234-.176 1.382-.768l2.736-10.558c.15-.588.572-1.389.935-1.88l33.212-44.045c.373-.482.32-1.06-.287-1.06l-3.614.003m-136.179 8.378h-11.805c-.602 0-1.219.212-1.339.81l-3.901 18.255-3.887 17.48c-.124.592-.727.552-1.335.552h-7.757c-7.675 0-6.79-4.85-5.21-12.117.018-.072 4.92-24.17 4.92-24.17.11-.595-.289-.81-.89-.81h-11.247c-.606 0-1.21.215-1.328.81l-4.525 24.152c-2.256 13.06-2.324 24.55 12.82 24.929.25.01 23.913 0 23.913 0 .612 0 1.214-.2 1.344-.79l5.135-24.22 5.116-24.323s.181-.558-.024-.558m-117.578-.04h-12.656c-.608 0-1.22.144-1.354.742l-2.284 9.881c-.13.585.259 1.052.87 1.052h12.119c.612 0 1.219-.552 1.349-1.141l2.2-9.956s.175-.578-.245-.578M97.006 29.1c-.602 0-1.22.48-1.35 1.075l-1.706 7.538-3.807 17.405s-2.026 9.252-2.22 9.832c0 0-1.705 6.68-5.78 6.413-1.896-.126-4.063-.56-4.063-.56h-.005c-1.14-.344-1.22.838-1.36 1.43l-2.512 10.843c-.145.594.244 1.128.846 1.135 0 0 5.449.769 9.296.769h.632c9.505 0 14.527-5.589 17.737-20.764l3.762-17.565 3.529-16.344c.13-.594-.23-1.147-.836-1.147m157.141 5.752c0 .66-2.085.534-2.085.534l-16.596-.12c-.573 0-.737-.805-.777-1.38-.001-.019.041-.689.09-.855 1.283-4.45 5.111-6.992 11.178-6.992 6.827 0 8.285 3.387 8.285 7.141m-5.708-19.22c-21.289 0-26.37 13.159-29.197 26.2-2.828 13.298-2.587 23.808 19.441 23.808h20.152c.596-.01 1.194-.557 1.314-1.147l2.165-8.435c.125-.598-.279-.774-.88-.774H253.88c-7.176 0-9.745-2.21-9.495-7.174-.005-.565.642-2.003 1.248-2.003h30.518c1.34-.008 1.382-.791 1.382-.791 3.107-14.022 3.31-29.684-16.836-29.684m-103.254 27.4l-2.454 8.385c-.169.589-.861.981-1.469.981h-12.656c-9.604 0-11.939-7.422-9.604-18.498 2.344-11.322 6.988-18.327 16.433-19.036 12.915-.973 15.558 8.147 12.427 18.63zm11.246 8.885s5.963-14.484 7.315-22.854c1.852-11.203-3.752-27.449-25.42-27.449-21.538 0-30.885 15.51-34.463 32.373-3.563 16.985 1.102 31.773 22.522 31.653l32.693-.02c.603-.002 1.23-.49 1.385-1.07l2.756-10.495c.15-.592-.224-1.073-.836-1.075l-2.633-.02-2.632-.012c-.517-.005-.816-.34-.747-.786.01-.08.02-.161.06-.245" fill="#fff"/></svg>