<svg version="1.0" xmlns="http://www.w3.org/2000/svg" width="1706.667" height="1693.333" viewBox="0 0 1280 1270"><path d="M1079.5.7c-65.2 5.6-123.3 45-150 101.7-12.4 26.3-17.3 50.5-16.2 79.5.7 17.1 2.8 29.2 7.6 44.2 1.7 5.3 3.1 9.8 3.1 10.1 0 .3-14.7 13.8-32.7 29.9-18.1 16.2-56.2 50.6-84.8 76.4-46.8 42.3-151.4 135.9-155.8 139.4-1.5 1.2-2.8.3-12-8.6-20.1-19.4-44.4-32.3-72.2-38.5-11.5-2.5-39.7-3.6-51.7-1.9-13.5 1.9-29.9 6.7-43.5 12.7-.7.3-1.6-.8-2.1-2.8-5.3-18.2-31.2-97-32.4-98.5-.7-.9.2-2.6 3.1-5.9 15.3-17.4 17.2-45.3 4.6-67-6.6-11.3-21.5-22.3-35.1-25.9-7.5-1.9-21.3-1.9-28.9 0-20.2 5.2-36.7 21.5-42 41.5-2.4 9.1-2 23.8 1 32.7 4.6 13.6 11.5 22.6 23.4 30.4 8.9 5.9 17.8 8.8 29.2 9.6l8.5.6 27.2 45.1c14.9 24.8 27.4 45.8 27.7 46.7.5 1.2-1.5 3.1-7.6 7.4-42.6 29.9-67.1 81.9-62.9 133.7.5 6.2.7 11.4.5 11.7-.3.2-19.5-.6-42.7-1.8C283 600 237.9 598 228.4 598c-6.8 0-8.3.3-8.8 1.7-.5 1.3-1.8-.4-5.1-6.5-17-31.8-48.5-54.2-83.4-59.2-12.9-1.9-34.3-.8-46 2.4-42.6 11.8-73.7 44.7-82.6 87.1-11.6 55.9 21 112.6 75.5 130.9 19.5 6.5 44.8 7.3 64.5 2.1 19.2-5.1 37-15.2 51-29 12.8-12.5 22.2-27.2 27.6-42.9l2.8-8.1 16.3-3.2c9-1.8 37-7 62.3-11.7 25.3-4.7 55.5-10.3 67-12.5 11.6-2.1 22.6-4.2 24.5-4.5 3.5-.6 3.6-.5 6.4 5.1 14 28.7 40.2 54.3 69.9 68.3 17.4 8.2 30.9 12 50.9 14.1 5.7.6 10.4 1.2 10.6 1.4.4.3 4.9 70.5 7.7 120 3.9 67.4 7.4 123.3 9 141.5 1.3 14.8 1.3 16.6-.1 17.5-13.3 8.6-18.4 12.5-26.6 20.4-28.3 27.1-42.7 60.7-42.8 99.6 0 21.7 4.3 40.3 14 60.2 19 38.8 53.7 65.4 98 74.9 13.1 2.8 39.2 2.6 52.9-.4 27.6-6.2 50.1-18.2 68.7-36.7 19.5-19.3 31.3-40.2 38-67 3.5-13.9 4.4-37.7 2-52.6-2-11.8-7.9-30.6-12.7-40-12.5-24.9-33.4-46.4-57.9-59.7-9.9-5.3-16.2-7.8-29.5-11.6l-11-3.2-4.6-15.4c-2.6-8.5-10.3-34.2-17.2-57-6.9-22.8-16.6-54.8-21.5-71-5-16.2-11.3-37.2-14-46.5-18-60.5-22.2-74.8-22.2-75.6 0-.5.8-.9 1.8-.9s6.8-1.4 12.8-3c13.6-3.8 33.9-13.6 45.9-22.1 11.7-8.3 27.4-24.1 35.2-35.4 3.4-5 6.8-9.8 7.5-10.9 1.3-1.7 3.9-.6 44.3 19.3 23.6 11.6 43.5 21.1 44.1 21.1 1.4 0 2 1.5 2.8 8.1 2.6 18.5 22 34.8 41.6 34.9 16.2 0 32.1-10.3 39.1-25.3 3.2-6.7 3.4-7.9 3.4-17.7 0-9.7-.2-11-3.2-17.3-6.4-13.4-18.1-22.3-32.6-24.8-12.2-2-26.4 2.3-35.7 11.1l-4.5 4.2L725 663c-51.7-11.9-53.8-12.4-54.5-13.2-.4-.3.5-2.8 1.9-5.6 3.2-6.4 8.1-21.3 10.1-30.7 6.4-31.1 2.9-64.2-9.7-92.4-1.6-3.5-2.5-6.8-2.1-7.2 1.3-1.2 95-53.1 159.3-88.2 93.8-51.1 139.8-76.7 164.3-91.4l10.9-6.5 10.6 5c19.1 9 32.9 13.1 54.7 16.3 84 12.3 167.1-34.3 197.4-110.8 36.6-92.4-13.9-195.7-111.4-228.2-24.7-8.2-52.1-11.6-77-9.4z" fill="#5fd3bc"/></svg>