<svg xmlns="http://www.w3.org/2000/svg" width="170.667" height="170.667"><path d="M161.167 85.333c0-9.164-7.428-16.592-16.592-16.592a16.523 16.523 0 00-11.509 4.655c-11.342-8.183-26.969-13.47-44.373-14.077l7.559-35.562 24.693 5.251c.301 6.277 5.443 11.288 11.796 11.288 6.546 0 11.851-5.305 11.851-11.85 0-6.547-5.305-11.854-11.85-11.854-4.657 0-8.646 2.71-10.583 6.616l-27.574-5.861a2.947 2.947 0 00-2.23.412 2.968 2.968 0 00-1.285 1.869l-8.44 39.68c-17.66.49-33.538 5.783-45.025 14.059-2.981-2.86-7.019-4.626-11.475-4.626-9.164 0-16.593 7.428-16.593 16.592 0 6.742 4.028 12.534 9.804 15.13a32.72 32.72 0 00-.396 5.019c0 25.527 29.714 46.22 66.37 46.22 36.655 0 66.37-20.693 66.37-46.22a32.75 32.75 0 00-.389-4.986c5.81-2.58 9.87-8.393 9.87-15.163" fill="#ff4500"/></svg>