<svg width="61" height="61" xmlns="http://www.w3.org/2000/svg"><path d="M6.512 19.766a4.003 4.003 0 005.601-4.045 14.668 14.668 0 013.175-.906c.513-.083.93-.457 1.07-.957 1.746-6.282 7.523-10.67 14.047-10.67 1.48 0 2.917.237 4.282.66a4.937 4.937 0 00-.278 1.625 4.962 4.962 0 004.962 4.962 4.931 4.931 0 002.985-1.005 14.45 14.45 0 012.097 4.428c.14.5.556.874 1.07.957 1.51.247 2.924.727 4.226 1.383a2.363 2.363 0 00.617 4.647 2.37 2.37 0 002.37-2.37c0-.105-.019-.206-.032-.308a14.531 14.531 0 014.982 12.256 15 15 0 01-.091.826c-.006.042-.01.085-.017.128a14.759 14.759 0 01-.419 1.897l-.049.17c-.09.296-.19.588-.297.876l-.067.167c-.095.245-.198.487-.306.726-.026.057-.05.114-.077.17-.133.283-.272.56-.422.831-.014.027-.03.051-.044.077-.14.249-.286.493-.44.732a14.712 14.712 0 01-1.223 1.651c-.032.039-.066.077-.099.115-.417.477-.865.928-1.34 1.348l-.087.075c-.235.204-.476.402-.724.591l-.014.012c-.262.199-.531.389-.807.57l-.056.037c-.26.17-.526.332-.797.485l-.056.032a14.45 14.45 0 01-7.097 1.85c-2.158 0-4.268-.48-6.2-1.391a15.16 15.16 0 01-1.649-.905 1.332 1.332 0 00-1.208-.117 9.995 9.995 0 01-7.389 0 1.333 1.333 0 00-1.208.117 14.745 14.745 0 01-1.648.905 14.539 14.539 0 01-13.299-.46l-.054-.03a14.975 14.975 0 01-.799-.487l-.055-.035a14.782 14.782 0 01-.808-.572l-.013-.01c-.248-.19-.49-.388-.725-.593l-.085-.074c-.476-.42-.924-.87-1.342-1.349l-.098-.113a14.562 14.562 0 01-1.663-2.384c-.014-.026-.03-.05-.044-.077-.15-.27-.29-.548-.422-.83l-.077-.171c-.109-.24-.212-.482-.308-.728-.02-.055-.043-.11-.065-.164-.108-.288-.207-.58-.298-.877-.017-.056-.031-.113-.048-.17-.072-.249-.138-.5-.197-.754-.018-.075-.036-.15-.052-.224a14.265 14.265 0 01-.17-.92c-.006-.042-.01-.085-.017-.127a14.732 14.732 0 01-.11-1.08 14.555 14.555 0 013.406-10.403m47.893 22.499a17.407 17.407 0 002.27-2.365l.072-.093c.216-.275.424-.556.624-.845l.007-.01c.208-.303.406-.612.594-.927l.038-.065c.163-.277.318-.558.466-.844a17.411 17.411 0 00.512-1.072c.01-.02.02-.04.028-.06.139-.324.267-.654.386-.987l.067-.198a17.195 17.195 0 00.33-1.07c.085-.31.162-.623.23-.94.005-.027.012-.053.018-.08.07-.341.129-.688.18-1.037.013-.094.024-.188.035-.282.034-.266.062-.533.083-.801.008-.104.017-.206.023-.31.022-.355.038-.712.038-1.074 0-8.214-5.683-15.178-13.63-16.865a17.131 17.131 0 00-2.76-5.134 4.94 4.94 0 00.317-1.733A4.962 4.962 0 0039.371.51a4.937 4.937 0 00-3.073 1.07A17.118 17.118 0 0030.405.525c-7.435 0-14.05 4.818-16.37 11.816a17.285 17.285 0 00-3.056.957 4.003 4.003 0 00-6.403 4.647A17.2 17.2 0 00.443 30.28c.006.103.015.205.023.309.021.268.049.535.083.8a17.173 17.173 0 00.215 1.32l.019.082c.067.316.144.63.229.939.024.088.05.176.075.263.078.272.163.54.255.806l.067.198c.119.333.247.662.386.986.009.021.02.042.028.063a17.104 17.104 0 00.511 1.07c.149.286.304.569.468.845l.036.063c.188.316.387.625.594.927l.008.011c.2.289.408.57.624.845l.072.093a17.442 17.442 0 002.297 2.389 17.261 17.261 0 002.738 1.925l3.87 16.621H47.77l3.87-16.62a17.31 17.31 0 002.738-1.926l.027-.024m-24-16.393a5.762 5.762 0 100-11.525 5.762 5.762 0 000 11.525" fill="#F16767" fill-rule="evenodd"/></svg>